<svg width="128" height="128" viewBox="0 0 128 128" fill="none" xmlns="http://www.w3.org/2000/svg">
<rect width="128" height="128" rx="32" fill="white"/>
<path d="M41.9559 31.0039C42.73 28.8772 44.2644 27.1259 46.2215 26.1352C48.1787 25.1445 50.3983 24.9957 52.3921 25.7214L78.7034 35.2979C80.6972 36.0236 82.3018 37.5644 83.1643 39.5813C84.0268 41.5982 84.0765 43.9261 83.3024 46.0528L77.4653 62.0902C76.6912 64.2169 75.1568 65.9682 73.1997 66.9589C71.2425 67.9496 69.0229 68.0984 67.0292 67.3728L59.5116 64.6366L43.8574 72.5604L48.2353 60.5324L40.7178 57.7962C38.724 57.0705 37.1194 55.5297 36.2569 53.5128C35.3944 51.4959 35.3447 49.168 36.1188 47.0413L41.9559 31.0039Z" fill="black" fill-opacity="0.95"/>
<path d="M87.9014 56.8077L84.9828 64.8264C83.4347 69.0798 80.366 72.5824 76.4517 74.5637C72.5374 76.5451 68.0981 76.8428 64.1106 75.3915L59.7053 73.7881L50.4888 78.4566C51.3238 79.437 52.4002 80.2102 53.6745 80.674L61.192 83.4102L68.0905 99.5425L72.4683 87.5144L79.9859 90.2506C81.9796 90.9763 84.1992 90.8274 86.1564 89.8367C88.1136 88.846 89.6479 87.0947 90.422 84.968L96.2591 68.9306C97.0332 66.8039 96.9835 64.4761 96.121 62.4591C95.2586 60.4422 93.6539 58.9014 91.6602 58.1757L87.9014 56.8077Z" fill="black" fill-opacity="0.95"/>
<rect x="3" y="3" width="122" height="122" rx="29" stroke="black" stroke-opacity="0.25" stroke-width="6"/>
</svg>
